<svg version="1.2" xmlns="http://www.w3.org/2000/svg" viewBox="0 0 108 21" width="108" height="21"><style>.a{fill:#fffafa}.b{fill:#6053ff}.c{fill:#459aff}</style><path class="a" d="m49.5 12.3h-6.5v7.2h-3.1v-17.5h10.9v2.8h-7.8v4.8h6.5z"/><path class="a" d="m54.6 5.3c-1 0-1.8-0.8-1.8-1.8 0-1 0.8-1.8 1.8-1.8 1 0 1.7 0.8 1.7 1.8 0 1-0.7 1.8-1.7 1.8zm-1.5 14.2v-11.9h3v11.9z"/><path class="a" d="m62 19.5h-2.9v-11.9h2.7l0.2 1.6c0.8-1.2 2.2-1.9 3.8-1.9 3 0 4.5 1.8 4.5 4.9v7.3h-2.9v-6.6c0-2-1-3-2.5-3-1.8 0-2.9 1.3-2.9 3.2z"/><path class="a" d="m77.2 19.5h-2.9v-9.4h-2.3v-2.5h2.3v-3.7h2.9v3.7h2.4v2.5h-2.4z"/><path class="a" d="m88.8 7.6v2.7h-1.1c-2.1 0-3.4 1.1-3.4 3.4v5.8h-2.9v-11.8h2.7l0.2 1.7c0.5-1.2 1.6-2 3.2-2 0.4 0 0.8 0.1 1.3 0.2z"/><path class="a" d="m92.3 5.3c-1.1 0-1.8-0.8-1.8-1.8 0-1 0.7-1.8 1.8-1.8 0.9 0 1.7 0.8 1.7 1.8 0 1-0.8 1.8-1.7 1.8zm-1.5 14.2v-11.9h2.9v11.9z"/><path class="a" d="m98.8 19.5h-3.3l4.1-5.8-4.1-6.1h3.4l2.6 4.1 2.5-4.1h3.3l-4 6 3.9 5.9h-3.4l-2.5-3.9z"/><path class="b" d="m15 20.5l-15-15 5-5 10 10 10-10 5 5z"/><path class="c" d="m15 0.5l-15 15 5 5 10-10 10 10 5-5z"/><path class="b" d="m5 10.5l5-5 5 5-5 5z"/></svg>